<?xml version="1.0" encoding="UTF-8"?>
<svg width="1924" height="970" version="1.1" xmlns="http://www.w3.org/2000/svg">
 <g fill="#062043" stroke="#1c8fe2">
  <path d="m1924 970v-969c-362-1.17-726-0.167-1088-0.5-278 0.333-557-0.667-836 0.5v969c362 1.17 726 0.167 1088 0.5 278-0.333 557 0.666 836-0.5z"/>
  <path d="m1924 970v-969c-362-1.17-726-0.167-1088-0.5-64.2 0.666-129-1.33-193 1-13.6 9.12-31.2 8.01-44-1-199 0.333-399-0.667-598 0.5 0.333 316-0.667 634 0.5 950-0.548 13.6 4.74 23.8 20 19.5h1903z"/>
  <path d="m1924 970v-969c-362-1.17-726-0.167-1088-0.5-54.1 0.827-110-1.66-163 1.25-11.8 6.01-25.7 2.61-35 13.9-20.8-0.239-46.2 3.48-62-12.7-30.8-5.63-64.9-0.987-97-2.5-159 0.333-319-0.667-478 0.5 0.333 301-0.667 604 0.5 904 6.72 10.9-5.87 22.6 1 33.7 23.8-9.23 23.8 26.1 40 31.8h1882z"/>
  <path d="m1924 970v-969c-362-1.17-726-0.167-1088-0.5-18.1 1.67-39.7-5.7-52 9.5-10 5.19-15.2 15.9-28 8.29-12.7-2.06-26.1 8.39-37-2.69-9.23-16-36.6-19.4-46.7-1.6-6.14 7.42-17.1 5.91-23.3 13.8-7.62 2.55-11 11.9-21 5.5-19.1-0.608-34.6-17.6-54.4-14.3-12.9-12.6-33.6-14.2-50.6-18.5-15.1 4.95-32.1-5.47-47 3.88-37.5-7.8-78.1-2.17-117-3.88-119 0.333-239-0.667-358 0.5v873c9.33 10.9 25.3-7.26 32.5-16-0.458-13 32.8-16.9 22.2-2 0.155 8.79 7.24 17.8 1.08 28 2.6 16.7-27.5 13.9-23.3 31.3 18.5 2.57 16.9 23.2 32.5 29.7 12.7 7.46 3.53 31.2 24.5 25.5h1834z"/>
  <path d="m1924 970v-969c-320-1.17-640-0.167-960-0.5-24.4-0.214-49.9-0.25-73.2 1.5-24.9-3.16-52.8-1.17-78.2-1-11 14-18.3 33.8-32.6 43.4-17-7.36-34.8-12.6-54-14.2-14.3 6.71-23.6-24.6-36.1-14.2-3.23 8.25-15.8 4.29-18.9 14.5-5.85 6.71-13.9-1.7-17 9.17-6.56 13.8-24.5-0.287-35.2 1.33-10.9-11.8-31.6-11.5-45.8-10.3-7.05 10.3-22.6 0.577-32-0.71-12.5-5.12-17-28.4-34-18-7.66 4.47-11.1 16.9-23 11-9.28-8.14-19.3-14-32-16-16.2-12.5-31.1 20.4-46.3 4-5.6-19.2-30.6-7.16-45.7-10.5-81.3-0.129-162 0.226-242 0-38.8 1-80.7-2-118 1.5 0.333 268-0.667 538 0.5 806 4.08 9.96 4.55 19.7-0.499 28 12.6 13 19.3-20.2 33.5-19.5 18.7-8.16 44.5-15 61-0.499-1.49 13.6-25.5 11.6-25.8 29-2.31 19.6 32.8 7.94 23.6 29 13.5 12.1 0.387 30.8-15.8 26.8-15.2 1.83 1.43 20.2 6 25.2 15 10.9 35.1 17.3 43 36 21.2 15.6 49.3 5.77 74 8.5h1724z" stroke-width="3"/>
  <path d="m1924 970v-969c-318-1.17-637-0.167-956-0.5 8.43 13.5-11 29.6-21 14.2-10.6 6.81-19.4-7.46-28 0.174-12.1 4.5-22.5-0.365-33-4.03-17-2.79-33.2 3.8-50-2.37-12.3-1.64-16.7 13.4-19.7 22.6 1.57 16.5-8.23 34.3-18.3 45.5-12.6-8.32-25.7-17-40.7-17.5-12.2-9.07-25.9-16.5-40.3-16.5-10.6 7.01-15.4-13.8-22.7 0.5-8.8 15.3-27.6 37.1-46.3 22-3.82-8.77-14.6-10.1-22-16.1-13.3 3.6-15.2-14.3-29-10.1-11.1-1.62-19.3 3.91-25 10.8-9.6 2.98-16.4-13.7-16-0.6 10.1 3.7-16.3-1.29-11 4-10.1 0.636-14.2-14-26-8.17-19.7 0.522-41.5-2.38-55-14.8-2.02-6.6-13.5 13.8-25 11.7-13.2 6.03-31.3 1.77-43-4.66-7.25-1.76-15.1-2.05-24-6.99-8.94 4.41-23-10.8-18-5-7.92-4.25 3.82-16.7-11-18.3-8.3 8.82-21.1 20.1-32.7 7.34-7.11-9.21-12.5-18.4-24.3-10-19.4 4.7-38 0.436-57-0.857-15.4 6.44-26.9 25.1-46 23.9-11.8 1.57-19.9-11.2-33-6.14-18.5 2.1-26.8-13.8-42-19.9-35.1-0.833-72.9-0.833-108 0 0.333 236-0.667 474 0.5 710 4.16 15.6-5.3 32 7 45.2 10.1 1.59 13 12.7 17.5 19.8-11.3 18.5 17.1 11 24.5 5 15.5-7.75 33.1-1.11 50-2 6.99 8.59 13.2 17 26 14.5 13.5 3 38.6-6.65 37 15.5-4.2 14.9-9.82 30.9-27 35-11.7 6.09-27.6 27.8-6 32.5 12.1-2.49 20.7 7.63 14.5 18.5 7.66 5.79 12.1 12.4-1.5 11-12.9-1.14-23.4 8.67-13 20 12.3 14.9 27.9 26.7 47 32 13.2-0.973 8.12 17.8 22 12.5h1725zm-1902-238c-17 3.63 2.32-16.5 2.4-2.25-0.241 1.11-1.15 2.28-2.4 2.25z"/>
  <path d="m1924 970v-969c-310-1.17-621-0.167-932-0.5-11 12.9 1.56 34.7-11 43.5-2.75 9.48-16.6-3.2-25-2.25-17.5-8.24-37.6-8.92-54-19.6-12.3-3.19-22.5 1.56-33 5.45-16.4-11.7-29.3 6.11-37.8 18.4-13.4 12.8-2.25 30.2-7.2 44.7-7.72 13.3-21.9 17.8-34 8.33-6.91-4.05-10.9-8.88-20-9-8.68-8.89-13.8-26.1-29-22-7.35-13.3-23.6 1.98-36-0.254-12.2 5.63-20.4 16.2-35 16.8-22.5 5.94-34.8-24.4-58-18-16.9-2.17-32.9 3-45 14.5-10.9 1.93-26.3 3.08-35.6-3-7.16-9.09-16.2-29.1-27.4-14-14.7-1.7-31.3 12.5-44-1-7.09-13.3-20 5.87-31 5-7.11-3.44-17.2-3.3-26-8-15.4 3.28-32-3.35-46-12-13.7-4.14-28-9.05-40.7-14-5.42-4.94-13.3-6.64-18.2-12.6-12.3 3.35-23 9.98-36 3.1-10.7-5.94-22.5-6.91-31 2.17-16.1 11.9-35.1 11.4-54 13.5-20.9 9.21-37.7-12-58.5-11.2-3.89-10.4-16.3-1.24-18.5-14.2-8.67-6.43-16.5-11.3-28-7.8-15.2-5.52-35.5-7.87-50.5-5e-4 -9.76 11.3-10.3 29.5-22 38 0.333 206-0.667 413 0.5 618 7.2 7.71 20.1 8.59 13.7 21 1.46 13.8 16.4 22.9 20.1 33-10.2 18 15.7 34 31.2 27.5 18.3 5.34 39 0.458 56 8.5 12.5-2.92 25.3 7.59 37-2 11.9-6.24 10.3 16.4 25 9.5 16.2 2.38 44.8 4.52 39 26.5-13.9 13-22 30-34 44-9.78 8.82-13.3 22-20.3 32-8.26 13.1 11.9 16 1.33 29 7.37 12.9-8.19 41.4 14 43.3 17.1-1.41 24.9 16.7 36 25.7 11.1 13.7 25.1-11.7 39-10.3 11.4-7.67 25.1-4.8 37-8.67 8.9 3.37 18.7-0.866 28 3 9.88-6.59 22.9-2.81 35-5 17.8 4.15 4.07 24.1 13 30.5h1552z"/>
  <path d="m1924 970v-969c-304-1.17-608-0.167-912-0.5-10.6 9.93-2.68 27.3-5.6 40.5 2.48 18.8-18.9 50.4-37.9 32-16.3-10.7-35.6-12.7-48.5-29.2-9.12-12.9-25.8-6.29-32 3.85-13.3 6.71-30.8 0.033-39 13.9-7.66 6.59-5.94 20.7-8.29 31.5 9.16 29.1-31 54.8-52.7 33.2-20.4-4.21-22.5-28.2-38-36.9-15.6-2.09-32.1-3.4-47-1.25-10.2 7.96-18.8 20.9-34 14.7-13.8-2.66-27.8 17.4-39.2 4.33-5.53-6.41-29.4-20.5-22.8-13.7-17.1-3.76-29 12.9-45 9.33-6.89 1.25-15.7-4.86-16 5.67-11.4-0.434-9.98-19.5-25-19.9-10.7-7.28-20.2 4.91-29-5.83-16-3.37-31.6-0.12-42 12.7-15.7 8.69-24.3-12.7-40-5.25-12-7.06-25-5.07-38-7-18.2 7-27.1-17.2-40.3-24-11.5-2.17-23.6-28.3-32.7-11-15 16.7-29.2-15.7-45-0.996-8.19 4.14-17.2-4.13-26 5.19-12.2 6.62-25 9.66-37 2.46-13.5-5.72-27.9 8.18-41-2.67-14.6-2.74-25.3-16.1-41.5-11-11.1-6.5-25.7 4.8-33.5-9.75-7.91-3.88-9.03-14.7-21-12.2-20.6 0.52-20.5 32-41 37-21.5 2.99-9.35 28.1-12.5 43 0.333 148-0.667 297 0.5 445 12.6 0.408 33.9 4.47 25 21.4-1.53 19-6.21 38-8.33 57 2.7 17.6 18.3 27.7 23.5 44 0.912 15.1 17.1 25.6 12.8 41 21.1 15.6 48.8 3.42 71 17 16.2 8.3 32.8-16.2 49-4e-3 14.6-0.356 29 1.76 39 12.5 9.61-4.19 21.1-2.67 31-3 11.9 6.78 20.4 17.2 27 26.5-13.3 8.59-4.57 28.8-18.5 36-6.85 14.7-16.6 27.9-32.5 35-5.63 14-28.2 27.8-12.5 44 4.01 18.4-4.54 39.3 13.5 52 16.1 4.8 28.6-10.7 45-7 11.8-4.39 24-3.23 36-7.33 16.1 0.948 31-1.64 44-11.7 18.5-0.965 41.1-16.6 56-0.999-7.42 11.1-5.02 29.8 12 28 9.59 4.94 19.5 8.89 16.5 22-4.4 7.82-18 24.8-0.497 20.5h1494zm-1506-47c-9.75-3.72 5.34-6.78 0 0z"/>
  <path d="m1924 970v-969c-119-0.833-239-0.833-358 0-10.1 27.9-58 28.1-71 2-21.5-5.74-46.9-0.905-70-2.5-133 0.333-266-0.667-398 0.5-1.94 17.2 4.2 35.1-0.746 52 1.34 12.7-5.63 24.8-6.75 37-7.08 7.6-17.2 7.75-28 5.75-18-0.0811-39 0.133-50-16.7-13.3-6.76-24.1-15.9-40-15.3-17.9-1.64-47.3-0.296-46.3 25.3-1.95 18.1 11.7 38-3.67 54-10.2 10.6-18.8 27.3-37 23-12.8 2.08-14.9-17.6-28-9.25-12.5-11.9-16.7-41.1-40-32.8-13.2 2.27-25.3-9.64-37 3-16.4 2.81-33.2 1.72-48 10.3-12.2 6.06-20.9-2.85-26-14.3-17.7 4.66-35.8-9.26-54 0-13.7 0.31-33.5 13-42-5-16-11.4-30 9.18-47 1-16.8-4.46-35.8-9.22-51 0.5-10.1-1.73-16.1-10.8-28-9.75-19.6-14.2-47.6-1.61-67-14.2-10.8-7.07-17.3-21.1-33-16.7-11.8 1.42-22.8 3.5-32-6-20.5-8.17-39.6 16.1-60 2.45-12.8 2.24-24.1 13-38 4.3-11.1-2.16-20.5 7.85-30-1.17-15.6-2.22-23.5-15.4-37-20.5-15.4-8.88-34-7.17-50-7.3-19.5 18.1-52.5 16.4-66 42.5-0.833 140-0.833 283 0 423 17.4 7.33 41.1-0.0397 56.2 13 7.85 15.1-0.349 31.6-1.2 47-8.12 18-11.6 39.9-8.33 58 10.7 14.5 10.8 32.2 23.3 46 10.2 5.86 18.7 11.5 31 11 17 8.51 34 3.5 51 0.672 15.7 5.04 32.3-6.15 48 1.33 16.9 0.964 34.9 15 52 2 14.9 12 32.8 19.9 50 29.7 8.27-2.41 24 0.57 11 10.3-2.73 9.99 17.6 4.01 7.8 17 2.94 9.37 11.6 18 18.7 21-16.9 14-33.8 31.3-53.5 42-14.8 4.2-24.7 18.3-38.5 24-11.4 15.8-20.2 39.1-20.5 57 6.79-1.41 3.9 13 15 5.2 10.7-10.4 24.1-7.71 38-7.7 15.7-8.4 38-0.424 49-17.5 12.6-8.86 31.2-13.4 46-17 11.6-9.88 37.1-13.6 37 9 5.45 9.61 22.6-7.25 24 8 14.8 4.28 6.06 18.5 11 28 13.7 2.15 24.8 12.3 21.3 26 9.55 3.1 15.4 9.86 17.7 21-3.34 7.64-13.7 23.4 3 19.5h1434z"/>
  <path d="m1924 970v-969c-106-0.833-213-0.833-318 0-12.4 8.3-16.5 25.7-29.5 35-6.46 20.8-31.4 19.7-46.5 10.3-20 0.787-31.3-22.5-51-20.6-14.7-6.1-28.6-17.9-40-25.2-87.2 0.333-176-0.667-262 0.5-7.41 7.33-20.4 10.6-28 19.1-13-0.556-19.8-20.6-35-14.6-16.2-3.13-32.5-4.11-49-5-11-1.86-16.8 8.98-13 17.5-8.62 11.8-11.6 32.9-4 45.5 17.7 7.6-0.924 27.8 5 42.5-9.07 16.6-34 26.4-52 17.3-17.6 6.29-27.5-14.8-45-11.5-11.6-5.3-22.5-11.8-31-20.2-13.5-5.35-32.4-7.76-44-0.166-22.6 19.8 15.7 51.2-9.4 71.1-12.8 10-12.1 41-34.1 34.4-11.8-4.15-24.1-1.29-35.5-7-17.1-8.67-32.9-22-47-35.3-11.7 3.48-13-14-26-9.42-14.2-6-27 8.91-42 6.5-15 2.85-28.6 8.13-44 3.25-18.5 2.09-23.3-24.5-42-17.4-14.7 0.361-28.3 4.62-43 3.17-10.7 6.52-18.4-0.61-25-7.8-16.3 1-30.6 13.8-47 11.5-19.8 6.54-35-23.1-57-16.5-15.1-2.76-31.2-4.05-46 0-13.1-5.46-25.4 11.4-40 4.33-17.3-6.08-19.4-35.9-38-38.3-18.4 5.42-38.8-1.78-52 16.3-9.69 7.59-21.5-6.37-33-5.53-14.4-3.08-25.6-7.99-40-1.8-15.6 5.74-28.1-6.99-39-14.4-9.48 1.89-11.6-10.4-20.5-11.6-2.8-11-13.8-2.38-19.5-9.5-21 7.39-42.5 13.9-65 17.2-15.7 10.2-24.3 29.2-23 47.2-20.6 17.7-9.89 46.7-12.5 71 0.333 92.5-0.667 186 0.5 278 13.1-0.676 10.9 23.4 26 14.7 15.7-3.4 25.9 14.5 42 11.6 17.1 5.89 26.5 25.2 23.7 42.7 6.25 21.8-16.8 35.8-18.7 55 10.7 17.1-1.96 47.6 24 55.2 15.3 9.45 32.3 0.855 48 8.75 15-1.08 22.8-21.9 40-13.7 15.9 7.97 37.3 24.4 54 8.66 18.8-12 37.8 2.81 58 2.5 11.4 5.62 21.5 15.2 28 25.8 10.7 4.48 14.7 17.7 28 9.67 12.5 3.85 27.5 12 33.7 22-5.26 10.9-13.9 20.1-25.7 17 5.64 13 22.9 20.4 25.5 35-4.93 20.8-30 24.7-43.6 38.4-18.8 6.5-34.9 17.9-53.9 22.1-6.34 7.25-29.2 13.6-18 24.5 9.27 4.97 19.8 5.42 30-2 15 1.51 22.5-11.2 36.3-14 13.5-9.15 24.7-20.1 40.2-25 15-20.6 41.9-12.3 57.8 3 11.9 9.04 18.8 23.9 28.7 33 14.2-7.65 25.7 7.58 25.5 20 2.23 17.4 17.3 26.9 25.5 40-3.39 18 20.8 23.8 17.7 40 6.14 15.6 21.6 15.7 36.3 14.5h1354zm-1382-81.6c-17.6 2.84-1.6-18.5 1.8-2.4-0.319 0.951-0.766 2.03-1.8 2.4z" stroke-width="3"/>
  <path d="m516 886c6.2-9.77-17.9-19.7-10.5-6.33 3.72 1.19 5.81 9.44 10.5 6.33zm1408 83v-969c-93.9-0.833-189-0.833-283 0 4.46 19.4-16.4 25.8-21.5 42-12.2 6.77-19.7 17.8-23 30-2.13 13.7-11.7 8.77-22 6.2-20.8-9.37-45.2-4.08-62-21.9-12.4-1.44-18.1-15.1-31-13-7.48-10.4-20.2-10.4-29-18.3-26.4-4.26-43.6-31.3-72-25.5h-165c-11.3 7.07-16 17.6-19 28.8-4.26 11-16.1 6.6-25 5.41-5.69-8.53-17.4-5.98-26-9.17-9.99-1.36-16.5-13.6-25-4.33-10.8 0.0037-16.6-11.8-28-7-13.5 8.68-33.4 23.4-32.8 40.8 5.86 6.26 7.32 14.5 12 20 7.51 15.2 3.67 31.8 6.08 48-5.09 13.1-20.5 17-31.3 24-13.2 7.35-23.9-2.39-37 2-22.5-4.82-43.5-14.1-60-29.8-14.2 2.68-17.9-17.4-31-11.2-24.2 1.79-24.8 34.7-16 51 3.09 23.5-14 42.9-26.5 61-19.5 18.3-36.7-19.4-56.5-1.99-16.5 6.65-24-11.7-38-15-3.51-8.96-17.3-2.71-19-14.2-11.9-2.15-16.4-16.9-30.3-17.8-13.2-15.1-32.5 0.459-47.7 0.999-13.1 5.91-29.1 6.7-42-0.998-16.9-0.412-26.8-28.6-44-19.7-14.8-1.37-29.6 13.9-44 2.22-17.2-1.89-34.9-9.19-49 5.11-17.8 1.69-42.2 14.5-56-5.16-15-11.6-35.7-2.23-53-5.83-17.5 9.31-37 15.5-56 5.58-17.7 0.485-29.9-10.6-36-26.7-16.2-19.3-34.4 5.43-46 14.7-18.1 0.192-25.6-22.4-44-24.2-15-8.93-36.7-1.04-50-2-9.54-2.92-21-2.59-28-12.2-12.1-2.89-24.7-0.199-33-12.8-18.6-2.62-45.3 0.911-53.5 21-15.6 21.3-28.3 45.1-41.2 68-6.34 8.75-11.4 16.5-8.83 29 0.333 57.2-0.667 115 0.5 172 10 6.35 11.5 19.4 7 28.3 2.91 9.56 5.07 19.3 10 28-2.49 18.4 9.55 32.4 26 38 14.3 7.64 33.8 13.7 50 12 10.7-10.3 9.69 5.19 14 9.75 21.2 6.62 14.9 30.7 9.5 45.2 3.89 14.5-16.3 28.8-5.49 44-8.41 9.11-12.4 26 5 28 11.2 8.05 18.4 6.41 30 9 20 1.4 40.5-2.16 58 10 18.5 8.38 36.2-1.5 52-9.5 17.6-5.02 34.1 0.575 46 14 15.3 1.43 29.7 9.46 36 22 12.7-6.65 21.8 4.65 31 10 16.6 4.56 27.8 20.4 46 20.5 12.1 9.27 10.3 23.8 0.5 33-4.06 16.8 16.5 25.3 12.5 42 5.47 10.5 16.8 15.1 23.9 22.9 12.2 12.6 28.7 22.5 42.1 32.1 13.2 6.07 14.1 22 29 25 11.4 4.87 9.59 21.6 13 28.8 12-0.231 18.1 10.8 25 18.2-9.41 17.4 29.8-0.128 16.5 18-17.2 13.2 3.45 25.5 12.5 34.4 14.5 5.11-3.38 14.5-10 16.6-12.3 9.41-6.14 12.2 6 10.5h1337z"/>
  <path d="m1924 970v-969c-88.4-0.833-179-0.833-267 0 2.43 15.4 9.23 31.8-2.68 45.9-11.2 12.9-22 28.4-14.8 46.1-6.59 12.9-18.9 19-33.2 21.3-16.4 6.28-29-18.9-46-18-19.1-4.18-38.2-19.7-59-13.3-3.62-8.41-12.8-11.2-14-23.5-13.4-10.4-32.6-7.6-47-18.3-12.4-0.122-23-6.91-35-4.17-13.4-16.8-26.3-42.1-52-36.5-38.1 0.998-77.6-2-115 1.5-8.51 11.5-25.2 12.4-26.8 29-5.86 12 6.96 35.6-14.4 36-16.9 7.99-25-12.4-34-22.2-9.23-8.74-24.1 2.07-30-14.1-17.8-3.8-45.4-0.197-45.7 22.4-5.73 19.7 19 34 15.5 55 7.13 22.2 0.755 52.2-25.8 57-12.8 6.47-26.6-2.04-40 4.25-14.9 1.42-29.7 2.58-43-5.25-24.3 3.29-40.3-35.5-64-17-14.4 10.8 4.74 29.8-5.34 44-10.5 30-36 64.4-71.7 56.5-14.6-6.25-35.4 15-46-6-6.2-8.51-14-12.7-22.3-13.5-8.1-7.42-14.8-16.3-25.5-19-5.71-9.77-17.2-9.37-19.5-19-11.8-5.65-25.6-9.76-36.7-1.6-15.8-3.31-21.3 20-34 13.6-11.4 0.358-21.6-7.37-32.8-8-6.35-17.6-27.5-8.29-41.2-15.5-12.9 3.7-19.2-8.65-33-4.25-9.99 0.359-12.2-13.3-23-6.91-17.4-0.398-39.1-4.8-52 9.42-8.62 5.98-15.4 12.1-27 8.59-13.2 8.76-16.8-19.3-31-8.33-13.5-17.4-36.7-0.821-55-3-16.1-3.08-30.8 10.3-46 5-3.34-16.3-20.4-7.33-27-17.5-11.1 1.09-23-14.2-36-3.75-12.1-10.3-8.16 13-20.5 6.25-6.5-7.33-18.2-5.64-23.5-15.3-12.6-3.13-19.3-15.9-28-20.1-17-5.94-30.6 13.7-48 5.4-16.3 0.318-16.5-25.5-35-13.6-13.1-0.585-27.2-14.5-37.1 0.653-8.03 9.37-6.4 23.2-18.9 29.9-11.6 16.3-24.4 34-32 52-8.4 10.9-28.2 5.21-22.5 23 0.333 41.8-0.667 85 0.5 126 12.2 3.85 32.3-1.51 35 17-2.61 21.8 17.6 38.4 11.3 59 12.1 27.8 44.1 41.9 73.7 37.5 10.4-0.81 14.7 2.38 14 12.5 24.3 12.3-0.675 45.5 19 62 10.1 8.56-4.6 23.6-4 32 3.39 6.17 5.33 14.4 16 12.7 10.3 16.8 32.9 13.7 50 19.3 18.4-1.62 35.6-6.5 52.1-15.4 16.4-4.35 33.3-0.431 43.9 13.4 16.8 23.4 51.5 16.4 71 33 20.4-5.98 24.9 24.1 45 22 20-3.96 30.4 14.4 35 31 12.3 12.6 8.14 32.1-2.5 45 6.45 14.5 10.6 37.5 27.5 43 17.9-7.99 19.1 20.2 35.3 22 9.26 16.1 31.2 14.9 37.2 31 8.48 6.81 7.53 17.7 8.5 25 15.2-2.14-0.815 20.2 13 13.3 15.2-0.942 15.6 26.7 12 19.7 12-11.2 16.6-5.06 25 7 6.57 5.59 12.9 14.1 15.6 21-9.47 11.1-12.7-2.26-23.1-1-12.4 1.09-25.1 24-5.5 22.2 6.62 10 3.47 6.97 8 17.8-3.85 19.6 15.9 17.2 29 16.5h1281zm-1310-38.7c-4.67-5.03 6.14-4.76 0 0z"/>
  <path d="m50.5 378c5.45-14.1-17.2 1.97 0 0zm1874 591v-969c-80.1-0.833-162-0.833-242 0-1.57 18.4 8.52 35.5 2.33 54-7.35 21.2-19.6 41.8-19 64-7.61 8.36-15.7 16.9-29 16.3-10.5 2.95-18.5 4.16-29 1.87-23.9 7.69-31.9-30.2-55-22.2-6.53-8.01-15.6-12-22-20.4-14-10.3-26.7 10.6-41-0.622-11.2-12-20-32.9-39-31-12.5-5.82-24 2.53-36-4-11.3 1.22-19.2-5.12-27-10.3-8.24-0.948-23.2-19.9-16-15.7-11.4-19-28.9-37.7-53-32.5-20.2 0.895-42.5-5.11-57 12.5-12.8 10-34.6 14.6-29 35 0.984 16.9-14.9 27.3-25 37.1-13.9 1.09-20.3-12.8-34-11.5-8.69-8.35-16.5-6.72-26-0.667-9.53 1.67-18-20.9-25-4-4.73 17.1 13 35.3-0.497 51 19 7.34 0.784 29.1 1.51 44-1.39 21.4-23 28.3-38 41-15.3 8.09-32.3 10.4-49 2.75-12.2 1.77-23.1-0.693-31-10.6-7.88-4.84-13-15.9-25-11.6-13.6-1.08-30.2-9.55-36 9.9-14.4 12.4-4.07 33.4-18.3 46.5-12.8 15.4-24.8 40.7-48.7 38-11.3 5.26-21.3-12.9-32.5-1-10.2 6.21-20.7 1.69-28.5-3.75-13.8 11.2-15.4-13.3-28-14.2-10.5-14.1-26.7-26-29.7-43-12.2-8.33-28.2-16.1-42.8-17-16.3 3.01-22.9 17.1-33.5 27.5-15.1 2.03-27.3-6.28-40.8-10.5-10.4-8.06-22.9-16.4-37.3-13-13.6 2.21-29.2 4.85-41-4.33-6.94-9.15-28.3-2.33-22-19.7-13.8-6.57-27.4 8.63-37.5 17-12.2 7.16-28.8 1.98-41.5 10-5.9 4.12-17.9 15-15.6-1-3.97-19.1-35.6 0.0791-37.4-20.5-27.6-0.18-50.3 21.1-78 15.5-17.4-0.318-33.4-18.3-52-10.3-5.3-5.59-7.72-13.3-15.7-13.7-5.51-13.2-20.3-4.39-26.3 2.74-12.7-1.05-28.2-5.26-26-20.7-7.76-4.54-19.1 5.79-21-8.83-11.6-3.33-24.1-0.875-34 2.33-9.64 1.1-14.7-8.78-24-6.83-16.5-13.5-45.1-2.77-46 19.3-19 13.2-30.7 32.9-40 53.5-11.9 9.52-25 19.3-41 14.1-11.3 2.47-2.93 21.6-5.5 31.4 1 18.8-2 40.6 1.5 57.5 18.7 1.66 43.1 4.24 53.7 22.5-1.15 12.7 20.4 10.7 11.3 24 5.04 16.2 18.1 27.7 30.8 37-3.27 13.4-10.3-10.2-18.7 2.5-13.4 6.04-0.602 14.9 6.33 18.5 10.2 13.6 32.2 11.1 48.7 10.7 15.3-7.85 31.5 11.6 28 23.3 14.5 16.9 1.74 43.8 13.7 63 8.11 13.7-7.44 31.1 11.3 39.3 15.2 22.5 45.5 12.5 65.2 2.67 15.1-9.78 43.4-24.8 53.7-1.5 9.16 13.4 27.2 17.2 39 25.5 13.2 1.01 24.8-14.2 33 4.33 14.8 6.16 29 13.2 46 11.7 16.7 3.63 16.9 23.8 34 25 7.87 8.83 23.2 8.05 33 17 11.6 8.38 16.3 24 24 37 3.73 16.3-16.9 24.6-9.67 42-5.19 12.7 1.68 29.8 16.7 29 14.6 12.9 29.1 30.5 50 31.7 7.49 9.36 26 13 24 26.8-14.2 3.6-6.19 15.5 3 18.5 7.31 10.1 16.6 19.2 27.3 23-2.64 14.1 11.8 21.6 23 24-0.648 15.3 23.6 14.4 14.7 30 2.13 14.7-10.1 22.9-16.7 33 6.91 23.5 33.3 4.36 46.5 20.4 13.9 13.6 36.8 4.37 55.1 7.07h1175z"/>
  <path d="m256 186c9.87-7.92-11.8-16.3-4.5-3 0.788 1.61 2.72 2.84 4.5 3zm1668 784v-969c-72.9-0.833-147-0.833-220 0-6.27 15.2 14.8 24.3 9.42 40 6.1 28-15.3 52-22.2 78-0.269 15.6-14.9 28.2-31.5 25.7-16.4 10.8-37.3 14.3-56 10-18.1 12.2-30.3-16.1-42-24.9-14.8 2.79-19.1-11.9-30-16.3-12.6 1.79-21.9-6.75-35-3.3-18.8-2.15-40-5.45-47-25.9-10.8-8.69-21.1-1.19-32-0.668-8.74-11.7-23.4 5.77-29-9.41-12.5-14.9-27.4-27.5-35-45.7-9.09-17.6-28.4-16.5-45-19.2-20.3-0.454-27 21.1-44 28.7-13.6 8.94 2.04 25.1-9.5 36-6.34 12.3-20.6 10.5-27.5 22-16.8 3.4-36.7 6.76-48-10.2-20.8-8.47-36.6 21.8-29 39.2 20.2 18.1-6.48 41.3 0.997 63 1.01 15.8-5.7 32.6-23.3 33-14.1 16.8-33.7 33.6-56.7 27.3-15.7 9.92-31.1-8.69-46-4.67-13.3-10.1-15.9-32.1-33-36.2-11.7-0.246-17.5-7.11-25.5 5.5-8.5 23.8-17.6 47.2-17.5 73-10.3 13.2-38.2-3.77-41 20-17.7 18.8-40.9-0.959-61-7e-4 -13.3 12.6-30.3-4.18-47-2-16.3-4.26-7.28-33.2-28-32.2-10-7.43-13.7-19-20-27.5-12.5-4.47-21-20.9-35-19.3-5.22 19-32.1 32.6-49 19-7.16-8.86-19.9 6.51-27-7-17.4-6.22-34.6 1.18-52-4.8-12.7-1.63-23.4-3.97-32-13.2-9.7-7.68-21.5-11-33-6-12.4-2.57-22.1 3.94-32 8.25-12.9 6.21-28.6 12.8-41 1.38-15.7 0.0893-39.2 9.92-42-13.6-11.7-6.87-15.3 6.82-25 6.33-12.4 7.24-29.6 2.7-44 6.67-16.5 0.438-28.4-10.3-43-14.9-17.1-6.88-33.7 5.23-50 4.06-7.55-7.99-18.2-10.3-28-13.9-12.6 8.9-28.9-0.484-35.5-11.3 13.9 7.26 14.9-6.97 1.5-13-10.1 7.09-25.6 10.8-39 11-16.7-7.4-36.2-1.6-49 11-18.2 4.45-18.2 28.4-33 37-12.4 24-49.8 13.5-64.5 34 1.55 11.7-6.31 31.1 12.5 29 18.2 1.13 29.8 17.8 48 19 9.35 5.98 28.9 11.5 20.5 25 5.64 16.6 21.1 22.5 26.5 38 8.94 1.92 27.3 4.07 13.5 16-13 14.9 16.6 12 23.5 18.5 18.7 3.67 40.1 16.6 43 36.8 12.5 14.3-2.28 35.2 7.67 51.7 8.8 15.5 4.62 47.9 28.3 48.3 11.2-10.9 24.9-17.3 41-17.3 14.1-11.9 31.6-10.2 46-1 14.6-1.27 10.6 12.1 13 20.5 16.5 4.12 33.5 5.22 50 9.17 13-8.02 23.9 1.31 33 7.66 20.9 0.454 38 19.6 50 33.7 6.87 9.78 23.3-3.59 29 10 12.2 3.54 25.4 1.68 35 13 17.5 11.7 27.7 32.8 37 51-6.69 9.45 4.43 20.3-9.39 27.1-16 9.24-16.1 33 2.38 37.5 11.4 2.84 18.3 21.5 34 15.5 11.8 1.42 27.2 6.71 32.5 17-6.31 9.08 2.33 18.1 2.17 28 2.13 10-0.292 17.7 13.3 13 14.6-7.1 26.3 16.1 19.7 28 6.82 8.75 9.41 20.2 22.3 21 16 4.3 23.9 18.3 35.8 29-4.95 12.2-26.4 26.6-9.75 40 14.2 0.253 33.7 0.854 32 21-2.42 13.9 1.91 22.6 17 18.5h1174z"/>
  <path d="m1924 970v-969c-64-0.833-129-0.833-193 0-15.2 14 10.8 29.5 1.75 46 10.5 19-5.2 40.1-4.99 60-5.36 15.2-13.3 27.8-19.4 43.1-0.216 25.9-36.2 21.5-37.6 45.9-9.64 3.91-20.2 13.6-29 4-13 6.08-29.2-5.63-38-17-12.2-4.17-16.1-18.7-29-19-7.47-5.94-12.6-16.4-21-19.6-16-1.34-29.7-5.6-27-4.4-1.55-15-25.6-16.1-35-7.25-8.6-3.83-17.5-6.61-26-5.25-5.49-6.07-15.8-3.07-18.5-12.5-10.8-3.55-20.8-11.3-31.5-9-10.9-15.8-37.7-15.2-46-33-10.5-9.51-30.9-6.27-32.5-25-7.91-23-31.6-7.28-42.2 5-15.1 8.5-18 23-25.3 37-5.95 12.5-15.2 17.2-28 16.6-13.8 6.4-28.9 6.06-43 3.4-13.9 5.58-5.39 21.9-18.3 29-3.52 16.7-16.8 32.2-6.66 50 0.871 17.7 8.96 41.6-7 54.5-18.3 3.03-25.7 25.2-41 30-8.26 1.61-16.9 9.36-28 5.5-10.9 2.51-19.7-3.77-30-0.333-12.1-7.59-26.3-11.6-38.5-17.7-10.2-3.94-16.2-13.5-22.5-22.7-6.2-5.23-6.12-12.6-16-3.34-16 15.3-19.2 39.4-12.3 60 5.5 17.3-7.42 34.1-11.7 50-9.2 9.4-20.4 2.46-32 1-17.9-20.2-45.4-10.3-69-11-16.5 1.09-29.6 12.4-46 11-8.67-17.8-44.5-12.4-44.5-39 3.69-12.5-20.3-10.2-15.8-27-4.79-14.4-23-12.4-33.7-18-18 1.91-34.8 12.4-53 13-13.7 17.4-4.66-26.1-18.8-13-9.17 14.1-12.9-2.68-20.2-7-17.4-3.99-34.6 5.97-51-2.6-15.6-2.81-28-16.1-45-16.4-11.8-0.383-24.4 2.63-37 1-22 10.3-48.7 16-72 5.5-14.7 6.49-29.9 2.88-42-5.83-10.9 14.5-27.6-1.94-42 4.84-9.6-7.41-22-9.26-31-17.7-8.96 8.78-20.5 6.33-29 1.45-13.4-6.35-15.7 11.5-2 10.8 12.4-1.99-3.26 13-9 3.5-15.6-4.93-30.1-13.3-43-22.3-10.6 4.83-23.2 0.812-27-9.44-18.6-4.5-38.1-5.86-56-2-22-5.51-48.6 5.52-50.5 30.3-4.18 18-22.2 17.3-36.5 20.5-8.26 7.67-22.1 2.46-23.3 18.5 0.901 27.1 39.5 16.2 54.3 30.3 15.1 3.29 17.1 23.2 29 30.7 2.47 12.4 12.2 25.2 25 23-2.97 11.2-5.94 21.2 8.05 26.1 2.8 14.8 16.8 16.7 29.9 16.5 13.8 0.124 17.1 16.5 31 19.1 6.54 16.9 15.9 38.9 4.99 56.3 8.06 5.59 19.7 24.4 12 22 14.2-5.56 31.3 11.8 44.9-2.93 17.3-16 48.5-6.84 55.1 13.9 1.72 14.1 21.8 10.8 31 18 12.3-7.56 26.5-15.6 39-5 12.8 3.67 15.2 21.7 30.5 24 18 7.91 33.2 23.3 53.5 23.3 20.8 14.9 45.1 25.3 70 30.7 7.98 5.28 30.8 16.8 14 25.3-12.9 7.95-8.42 14.9 4 10.7 6.28 14.2 26.6 21.9 21.4 40 12.3 10.3-0.448 18.1-7.4 27-0.578 8.75-9.12 18.7 4 21-1.88 17.5 28.9-2.38 23 18 2.44 15.7 29.7 3.45 28.5 24 10.4-3.11 17.6 6.73 13.5 17 9.46 8.47 11.7 24 26.5 27-1.05 19.3 17.1 30.2 34.5 26 16.7-1.03 26.3 23.8 26.5 38-13.1 21.1 32.7 17.3 19.5 36-9.85 14.7 15.2 25.3 3 38 2.62 9.53 2.74 26 17 21.5h1140z" stroke-width="3"/>
  <path d="m686 790c2.59-7.44-8.65 0.26 0 0zm10 5c7.79-6.49-10.6-1.88 0 0zm1228 174v-969c-56.1-1.17-113-0.167-170-0.5-20.4 8.28-4.85 26.1 0 37.5 0.252 19.7 11.4 40.2-2.67 58-11.2 16.5-10 37.2-21.5 53 1.68 15.7 0.342 34.2 13.9 45 3.39 18.8-1.82 38.2 5.33 56 14.6 7.55 25.9 36.9 2 41-17.1 5.57-28 21.9-46 19-9.2 4.97-30.1-0.28-24.5-4 6.81-17.6-21.3-3.87-25.6-17.1-4.41-5.46 0.706-25-12.9-12.9-11.5-11.6-15.9 16.4-27 1-16.6-6.15-19.4-22.1-15-37-3.38-15.4-25.8-26.2-17-43-11.5-17.9-26.7-34.5-48-39.2-13.2-2.49-24.7-11.6-37.7-12.8-10.3-3.19-22.8 1.76-33.3-5.2-13.4 5.54-12.1-15-26.5-11.8-18.1 8.7-35.5-8-51.2-15-6.74-11.7-19-22.1-32.3-20.5-16.4-5.29-28-26.5-48-20.2-12 9.29-18.4 21.8-14.2 36.7-8.08 12.7-17.6 25.2-34.8 21.5-9.92 6.72-21 13.9-32 5.5-21.9 5.51-38.4 25.3-35 48-16.7 16.9 7.6 31.5 11.5 46-7.33 16-15 32.2-30.8 42-12.5 14.8-24.4 33.4-46.7 31.1-9.94-4.38-21.2 1.63-29.7-1.12-5.06-14.2-18.3 5.64-27.3-4-12.2-5.35-24.2-12.4-37-14.7-20.3-3.38-29.9 19.7-21 35.7-4.16 17.5-5.08 39.2-25 47.5-8.75 10.2-18.8 25.8-33 14.8-11 0.472-18.9 3.02-20 14.7-6.15 10.8 14.8 25.5-7 28.5-9.06-5.22-10.9-19.1-25-16-20.2 1.34-42.7-8.13-52-26.8-16.8-2.74-30.6-12.6-42-23.9-9.95-5.64-23-7.73-31.3-13.8-5.57-13.6-25.6-17.8-23.7-35.3-10.1-3.56-5.74-13.3-9-18.9-10.8 11.5-15.4-15-28.7-4.75-14.2 12.1-35.9 18.7-52.3 7.75-10.7-6.69-33.4 1.79-31.7-16.7-8.92-6.41-22 2.46-32.3-5.5-13-5.62-29.1 1.4-40.5-3.5-1.38-19.2-20.2 3.27-26.5-10.8-20-5.88-32.9 22.1-53 12.7-11 4.34-23.8 9.58-26.8-5 4.27-9.72-13.5-16.8-9.75-4-1.09 16.5-27.9 14.2-36.5 4.76-12.4-7.6-30.1 8.81-38-5.95-9.52-4.59-19.6-0.104-29-5.3-13.1 2.9-20.2-24.1-30.4-11.5-0.024 15.3-21.2 10.5-30.6 8.33-17.4-20.4-53.3 1.04-66-25.7-12.2-5.19-26.1-7.77-36 3.11-18.2-9.53-53.4-16.8-58 12.3 4.09 17.9-25.5 18-21 37 11.9 11.4 36.6 7.73 37.3 30 5.46 14.7 27.6 16.3 24.7 34 5.95 14.1 14.8 27.2 31 31.5 7.77 14.2 30-8.57 28.8 14.5-0.341 18.2 26.8 1.69 23.9 22 15.9 12.7 11.4 33.6 12.3 50 3.69 15.3 17.1 1.98 26 10 16.7-12.5 36 0.27 53 1.5 13.3 8.8 32 22 50 14 14.9 1.76 25 12.7 33 23.5 15.8-1.49 24.7 15.3 40 12.5 2.16 9.5 8.06 25.2 21 15.5 17.1-6.09 28.5 15.8 44 20 9.17 23.4 35.7 11.4 54 11 13.1 4.32 36.1 11 26.5 28-3.52 10.5-6.09 20.6 4.75 28 1.06 16 29.2 8.95 22 28-8.12 20.3 21.7 32.9 7.25 53 2.65 16 34.3 16.9 25.2 37 1.94 13.3 19.4 15.1 25.3 27 14.1 3.47 11.7 27.8 28.5 18 1.61 6.02-9.77 17.9 5.5 14 16.3-13.1 23.8 13.7 40 15 17.4 12.2 16.2 33.3 22 51 13.8 11.3 38.7 18.2 32.5 41-5.72 11.9-11.2 24-2 37 1.04 8.64-6.61 18.3-4.5 24 5.67-7.72 18.9-8.08 29-11 8.48 9.42 13.6 16.9 28 13.5h1060z"/>
  <path d="m1532 168c14.3-3.91-4.66-5.86 0 0zm-1266 97c5.23-9.48-9.45-0.233 0 0zm1658 705v-969c-44.6-0.501-91.2-1.5-136 0.5-19.9 8.8-14 30.1-12.7 47.5 1.51 16.7 12 37.1-5.53 49-1.48 19.6-17.2 31.4-22.5 49-3.78 21.6 15.8 36.8 26.8 52 18.8 1.58 26.7 20.4 39 29 11.3 2.15 11.1 14.4 19.5 21-7.7 10.2-4.9 23.3-3.5 35-4.17 12.6-14 11.5-25 12.5-25.7 5.47-41 28-60 43-14 0.258-25.2-4.83-40-2.25-17.9-2.7-32.7-12.8-51-9.75-16.3-5.25-43.1 7.86-52.8-14.5-4.87-10-21.1-9.61-27.2-20.7-18.4 0.522-4.96-20.3-19.5-25.3-4.4-19.2-13.2-36.9-16.8-56 12.5-16 5.25-44.3-17.7-40.8-11.2 0.993-22.5 0.674-28-10.2-22.5-9.1-47.1 4.78-68.7-6-0.109-9.35-12.9-6.01-19.3-9.5-6.59-6.15-17.5-6.04-22-15.9-17.3 2.18-27.4-16.3-45-13.9-12.2-3.44-22.9 5.16-28.5 14.3-6.06 11-12.2 24.2-26.5 24.7-9.59 2.97-19.6 0.893-30 2.08-16.1-6.89-29.7 2.98-36 17.2-15.8 16.4 4.04 44.9 25 41 5.11 12.7 28.5 22.2 16 37-10.6 10.3-19.1 22.8-36 16.5-18.9-6.27-27.5 19.1-42.3 24.5-3.38 26.4-34.1 31.5-54.7 24.3-18.2 0.543-37.4-0.86-56 1.67-27.4-10.1-31.6 25.5-38 44-4.99 12.6-33.8 16.1-19 32-8.04 13.2-28.1 8.2-35 24.2-10.2 10-15.3 26.2-3.83 36.8-3.37 16.1-15.8 33.2-34.2 24-19.8 3.22-30.4-19.2-50-19.5-12.6-13.6-30-23.5-43.7-36.5-0.913-14.3-8.69-26.5-21.4-34.6-8.78-16.1-36.2-4.44-39.9-25.4-11.7-0.17-25.9-3.75-26-18.3-13.7-10.9-20.2-28-35-37.7-8.34 3.04-17.8-0.537-27 3.6-12 2.87-22 16.2-34 4.07-13.5-2.48-20.9-17-36-13.7-6.5-12.8-16.3-4.36-25.7-7-2.97-9.52-30.6-6.79-16.3 2.01-2.38 12.9-23.5-10.7-31 3-13.1-6.45-29.9-7.34-43-14.3-13.2 7.43-29.3 5.36-43 10.6-14.4 4.46-26.5-12.5-39-0.086-15.2 2.38-27.8-16.3-44-6.75-10.5-3.51-19-16.5-30-7.5-12.8 2.8-22.8-2.69-28-13.7-10.7 1.21-21.4 9.05-32 0.334-12.1 1.28-28.5 19.7-34-0.337-14.8-0.0551-30.5-3.15-45-6.67-13.9-5.26-27.1-12.8-43-12.7-7.8-9.6-26.4-12.9-31.5 0 2.17 10.2-8.43 24.5 4.5 33.3 18.1 6.21-1.76 23.4 14 29.3 19.8-4.05 10.8 29.2 32 28.7 15.3 1.19 19.6 22 35 17.7 12.7-0.615 13.4 9.11 18 17 18 6.32 20.4 26.4 34.5 37-2.39 8.93-1.4 23.3 11.5 16.5 13.5 10.8 33.1 11.3 44 24.8 17.6 3.05 35.6 17.4 53 4.46 20.9 1.94 31.4 27.3 54 24.9 12 12.1 28.6 13.7 43.7 17.3 1.95 12.2 7.93 20 21.3 17 7.62 7.84 11.5 18.8 25 16.3 12.3 4.76 22.7 8.61 35 0.667 11.3 1.59 21.5 5.57 33 7 8.53 3.9 28.9-3.18 25.3 15-4.07 13.4 16.7 21.6 10.7 37-3.44 17.5 12.5 29.5 25 37 0.433 10.8 10.7 16.8 8.4 29-6.4 14.4 4.1 26.3 6.09 40-8.7 13.3 12.9 19.4 13.5 32 8.14 2.26 15.9-8.62 12 6-0.727 15.8 15.9 20.1 24 29.5 13.7-2.66 28.6 3.61 41 2.5 7.05 8.54 25.7 6.69 23 23 15.3 8.34 11 22.7 17.5 35 7.85 9.56 4.7 21.7 18 26 11 10.2 26.1 13.4 29.5 29 16.5 2.33 22.8 20.2 38.1 26.6 10.8 9.92 8.22 23.6 2.95 34.4 7.01 10.6 2.78 34.5 22 28.5h1009z"/>
  <path d="m656 578c4.58-16.1-18.5 2.85 0 0zm1268 392v-969c-23.5-0.348-49.2-2.66-71.5 3-17.2 0.445-32.6-9.26-44 10-21.5 12.6-3.97 40.6-10.2 60 3.71 20.1-19.8 33.3-19.4 54 2.22 12-20 21.4-3.83 26 18.8 13.9 29.2 38.6 52.5 46.5 18.8 20.9 48.6 30.4 60 57.5 9.22 7.09 20.3 19.4 8 30-2.19 16.4-8.27 41.6-26 45.7-16.8-7.88-35.7 1.82-53-5.67-10.9-1.82-26.9-15.7-32 2.5-9.2 6.23-5.95 19.5-14 25.5-12.6 21.5-34.4 2.51-51-0.251-30.5-5.36-62.1 4.7-91-9.35-22.3-1.27-36.7-19.4-56.5-27.4-9.22-13.7-29.5-5.64-33.5-24-5.79-13.9-22.7-16.4-22.5-33-5.66-17.5-14.6-34.8-0.836-52 9.56-14.8-14.8-27-27.7-22.7-14.5-3.19-22.2-19.5-39-14-12.6-10.1-32.7 7.17-41-9.29-14.9-11.3-39.4-4.28-51-22.3-12-7.76-24.3-4.82-34 5.33-19.6 6.59-26.7 38.8-51 28.5-19.1-9.29-36.2 25.2-15 35.5 12.6 18.8 35.1 28.7 51 44 21.8 5.51 22.3 33.8 0 40-13.7 8.32-18.7 37.4-39 25.5-12-4.14-22 1.54-34 0.5-18.2 16-43.8 18.2-68 14.6-15 4.95-29.8-0.717-45-2.27-10.4-5.77-20 5.46-30 1.67-5.99 14.3-29.2 0.416-30.3 22-5.69 12.8-14.8 25-11.2 39-6.78 14.4 7.54 36.1-5.5 46-9.28 11.1-24.1-4.48-32 9.5-17.1 0.869-13.2 20.1 2 17.5 13.4 4.06 13.2 19 27 23-4.17 14.1-24-7.48-23 13-2.65 18.3-28.7 6.52-39 16-7.95-0.377-14.6 12.2-25 7-12.1 0.559-18.9-12.7-32.5-11-4.49-15.6-27-12.6-34.2-23-5.82-17.1-32.2-22-40.5-39-4.54-19.5-18.7-35-37-43 0.807-18.8-24.2-5.54-26.8-22.5-21.3-2.58-33.8-22.2-49-36.2-7.68-10.2-8.39-21.5-22-24.3-10.6-14-23.7-1.18-34 5-8.98 7.01-19.3-3.44-30-1-12.8-10.6-30.6-8.49-45-15-19.6 0.929-38.4 14.9-57.7 8.99-6.55-15.3-22.8-9.29-34.3-8.33-10.6-9.02-24.4-14.6-37-5.67-10.9 7.88-22.5 11.3-31-1-14.5-2.34-29.5-1.58-43 3-7-17.5-28-3.95-41-12.5-11.2 1.22-21.6-2.71-33-1.1-5.99-11.8-16.8-8.11-27-10.7-8.93-14.9-21.2 18.5-30.5 2.33-2.24-13.7-20.3 10.4-29.5-0.502-16-1.87-26.9-18.7-42-18.5-11.5 10.3-20.2-13.7-28-4 7.97 17 19.1 36.2 33 50 16.6 2.87 23.1 22.3 41 23.8 15 11.2 36.7 17.3 42 37.2 13.7-2.3 22.4 9.99 22.5 23 14.5 25.6 47.5 29.8 72.5 20 13.7 4.85 30.8 5.45 37 21 19 9.82 39.9 12 58 23.7 5.7 13.7 20.2 17.5 34 22.3 15.5 1.27 12 26.1 29 19.5 6.52-12.4 28.8-17.7 28 1.5 9.52-4.31 18.2-6.14 29-3.33 13.9-1.83 23.6 14 37 3.33 11.1 5.49-4.26 21.7 12 21 0.26 8.48-5.66 17.9 5.4 23 2.4 11.5 20.8 9.39 15.1 23 4.29 13.3 3.85 36.8 22.5 36 7.68 9.25 12.2 18.4 6 30 6.77 13.3 10.2 27.5 18.7 41 0.767 15.7 11.6 24.5 23.6 33-0.0294 18.9 21.2 0.361 33.8 6.25 20.9 0.0695 25.9 28 46 31.1 8.35 15.5 8.29 34.1 24.1 45.7 9.71 7.57-0.624 24.1 16.9 25.9 17.5 12 30.5 28.1 47 40.3 15.1-1.25 24.9 7.71 39 3.67 15.2 7.81 9.05 20.7 5.5 33 8.22 14.8 12.5 33.9 1.5 50-4.88 8.35-12.3 19 3 15.5h971zm-940-432c-15.2 3.36-0.422-20.5 3-3.5 0.48 1.79-1.64 2.87-3 3.5z"/>
  <path d="m1924 256c-0.333-85.4 0.667-171-0.5-256-17.2-0.847-38-2.32-45 17.5-6.63 17.5-26.9 18.2-39 6.66-15.3-2.21-28.4 20.1-12 29.3-3.01 30.1-36.1 52.4-29.8 85-3.08 16.2 14.2 24.8 23.8 35 7.5 19.5 33.3 5.03 43 24 7.91 15.7 26.6 18 34 33.7 12.9 4.25 12.4 23.8 25.5 25.3zm0 713c-0.333-209 0.667-420-0.5-628-13.2 0.553-19 18-34 15.3-11.2 8.85-18.5-3.75-29-0.583-11.4 11.9-26.7-2.25-35-10.3-20.6-3.31-32.2 13.6-39 30.6-9.04 18.7-29 25.7-47 16.3-22.4-5.93-39.7-22.4-64-20.7-15.2-5.85-32.5 1.89-48-4.5-12-14.9-34.2-12.2-50-20-7.7-14.1-22.8-21.9-38.3-16-8.04-12-23.1-11.5-31.2-23-11.7-2.31-13.3-11.4-23.5-15-20.5-13.5-2.17-40.7 2-59-1.89-10.3 21.6-23.5 4-23-3.43-9.88-18-12.3-26-19-16.8-11.3-39.1-8.66-57-13.8-6.36-8.4-13.8-16.3-25-11.4-12.3-12.3-29.5 2.11-44-3.8-17.9 1.25-30.5 12.8-41 24-4.64 15.6-11.5 37.9 11 42 12.8 6.61 31.3 6.97 33.8 25 7.34 14.2 24.4 23.8 26.3 39-9.82 11.9 3.43 19.3 6 30 9.13 5.46 32.3 3.92 21 17-14.9 16.6-36.9 11.8-56 10.3-16-4.03-31 5.13-45 10.7-5.15 15.2-26.3 14.4-39 20-13.8-1.42-28.2 8.24-37-6.67-9.62-17.4-29.7-17.1-46-20.9-22.8-1.74-46-10.1-68.2-6.43-20.3 8.11-27.2 28.5-28.2 49-0.339 20.6-0.142 42.9 13.4 60 7.82 16.9 29.3 25.2 28 46-5.66 12.2 4.02 26.6-3 38-14.6-10.8-8.33 14-21 17-7.7 10.2-20.2 13.2-29 20.2-8.87-0.359-15.1 1.91-24-0.255-9.55 4.72-13.1 2.74-14 13-6.85-2.33-19.9 9.98-12-3.5 4.91-16.5-19.7-5.71-29-12.2-12.6-1.92-19.9-17.4-34-12.1-19.9-12.9-47.6-14.4-58.3-39.3-10.8-9.19-21.5-17.5-30.7-27-12.9-7.98-22.7-24.4-35.3-32 6.53-17.1-15.5-29.7-23.2-42-10-11.3-24.6-1.54-35.5-11.2-13.5-4.04-17.4-19.3-23.7-26.8-9.12-10.6-28.3-13.9-39.3-23-7.06-5.72-20.4 2.2-29 4-8.71-9.06-19.6 12.6-25.3-5-11.6-10.3-29.9-7.89-38.7-22-11.1 1.95-23.7 1.08-27 14.3-20.5 5.45-44.5 5.28-61-9.67-9.41 3.54-21.9 6.42-22-7-10.3-16.7-14.9 13.7-29 3.33-14.2 9.11-24.2-15.8-37-1-20.2 0.332-38.2-15.5-59-7.6-14.6 2.56-26-5.82-40-6.9-11.3-1.5-22.2-2.29-33-2.5-11.6 4.38-18.7-12.2-32-7-10.6-10.3-30.6 6.18-11 12.7 22.1 6.04 36.6 25.7 52.4 40.3-1.6 12 4.23 23.4 17.6 22.7 8.48 11.3 17.2 13.2 30 8.08 22.4-3.9 46.8-0.663 61 19.3 17.6 5.36 34.8 11.1 50 21 9.86 9.59 23.5 11.6 35 16.3 4.97 10.2 17.9 13.8 23 23 15.9 0.131 30.9-9.03 45 2.33 15.7-4.02 26.8 12.1 41 2.83 15.5-5.64 28.6 1.33 42 8.5 10.4 9.94 11 24.8 9 37 12.8 0.668 21.3 15.1 16 26 2.16 13.3 18.1 23.9 2.5 35 9.39 12.2 22.6-7.31 32 8 8.84 9.47 16.4 21.2 26 28-11.6 12.6 9.57 30.1-2.5 44 4.89 9.02 9.53 29 24 20 13.7 2.14 29.3 0.377 37 13 13.2 4.7 10.9 21.8 17 33 0.0713 14.8 23.9 13.7 19.7 31 3.16 9.51 22.2-1.62 19.3 15 5.45 10.3 20.1 7.18 20 22 12 8.27 23.6 18.2 28 31.5 16.4 0.717 27.9-11.3 41-17.5 5.7 9.57 12.9 20.8 25 25 13 13.1 26.1 27 43 36 12 26.3-27.4 43.6-28 71-1.6 7.63-29.8 23-9 20.5 315-0.313 631 0.627 945-0.47z"/>
  <path d="m1924 224c-0.333-68.4 0.667-137-0.5-205-10.2-17.4-21.3 11.5-29.7 17.3-7.91 22-38.8 11.8-45.3 35-2.99 16-19.9 23.8-28 37-17.5 15.9-0.7 52.2 22.5 39-1.85 9.09 10.1 13.4 13.5 23 14.7 11.3 24.6 27.2 41.7 35 4.46 11 20.3 10.7 25.8 19zm-480 30c14.6-8.06 29.5-34.8 8-44.2-11-25.7-42.4-7.32-62-16.2-19.5-3.78-38.5-15.8-59-7.83-14-0.0487-21 22.4-3 24.3 18.8 9.01 32.6 28.4 55 29 8.46 2.47 11.7 11.2 22 7 9.94 5.57 9.04-10.1 19-1 6.73 1.66 11.5 12.4 20 9zm480 715c-0.333-199 0.667-397-0.5-596-12.7-4.42-24.6 6.33-38-0.198-8.34 2.74-16.2 9.73-25 0.55-12.8-2.95-24-12.3-38-7.56-20.4-3.19-17.8 27.4-28 38-12.9 25.2-46.5 22.2-67 10.5-12.8 4.46-27.1-7.09-41 0.5-9.75 1.05-18.3 19-26 5-11.9-2.19-19.6-21.2-14-19-14.8-4.51-25.2-18.1-39.6-24-14.3-4.81-29.3-11.4-44.2-17-11.7-8.89-25.7-21.3-40.2-12-10.9-4.16-18.6 14-9 19 5.05 10.4 30.6 25.1 10 33-9.5 1.44-20.6-3.54-31-3-11.6-10.5-25.9-15.8-40-19-5.54 3.15-23.9 25.2-25 9-3.6-11.7-11.8 19.1-17-0.5-5.25-11.1-18.7-2.75-28-7.75-16.3 7.66-37-12.2-49.5 6.25-9.32 12.8-23.7 13.5-33.5 25.2-11-1.14-25-4.14-31 7.42-10.2-2.92-19.3-8-29-4.17-13-6.85-21.4-19.5-34-27.5-4.34-7.13-14.1-6.45-18-14.9-10.1-4.98-19.5-9.08-31-3.9-19-7.86-46.5-4.07-57.3 13.7-1.73 16.2 0.935 33 3 49 3.63 14.5 14.3 21.9 25.3 30.7 12.6 12 24.7 24.9 30 41.3 14 9.12 30.3 17 37 31-15.4 7.75-13.3 29.5-24 41-12.1-2.31-14.5 8.91-16 17-15.5 1.75-31.5 2.86-47 10-18.2 3.09-37.5 4.18-56 0.197-7.73-13.3-22.8-5.85-33-4.2-4.09 8.81-15.7-1.29-20.4-4-2.88-10.9-18.2 3.49-25.6-6-13.6-5.61-30.9 3.19-39.7-13-8.29-6.74-19.6-9.54-27.2-17.5-10.6-3.66-11.6-18.6-23-22.5-8.45-26.1-41.5-23.8-53-47-13.5-9.92-20.3-26.5-33.7-36-3.04-12.6-10.9-19.8-23-22-6.56-12.1-25.8-6.25-28.7-23-4.34-20.5-29.6-18.4-44.7-13.8-7.27-7.17-15.7-21.3-28-14.2-18.8 9.58-33.5-11.5-52-6 6.32-7.35-2.94-19.2-13.5-10-7.52 11.5-17.3 17-30.5 20.3-14.5 6.79-28.8-12.2-45-7.34-12-3.53-23.5-3.43-31-14.7-12.9 0.57-25.9 18.8-39 7.66 3.89-15.1-15.2 0.845-23-8-8.95 7.06-17.5 1.91-20-8-9.03-0.269-18.5-0.189-26-3.25-14.1 9.31 8.08 26.8 20 21.2 6.38 14.5 24.6 12.4 37 20.5 6.98 8.07 12.2 19.6 19 24.2 22-12 33.9 20.5 55 18.8 5.95 11.5 14.1 13.5 26 9.5 15.4 4.31 30.9 8.07 47 6.5 18.7 11.8 44.8-16.9 58 7.5 8.61 14.1 35.6 12.9 37 34 3.36 8.73 8.8 10.2 16 12-2.58 13.6 7.29 26.4 13 38-2.8 13.6 9.18 24 15 35 10.5 10 32.9 17.8 26.3 36 17.1 8.34 11.7 25.6-0.997 33 9.74 7.75 19.3 17.6 33.7 14.3 12.6 1.84 22.5 12.8 32.6 19.7-2.34 18.4 28.7 23.1 23.4 44-17 13.7 5.22-3.75 6.33 9-1.48 18.1 23.4 14.7 22.7 32.5 14.2 19.2 39.6 27.2 61 14.8 27.2-7.03 56.3-7.91 82-19.8 14.5 8.36 7.21 30.8 24 38.5 3.83 11.3 7.9 24.4 21 28 7.84 16.8 11.7 38.9-1 57-5.89 25.4-42 31.3-46.5 58-4.49 5.59-25.9 25.4-14.5 28.5 306-0.3 613 0.6 919-0.45z" stroke-width="3"/>
  <path d="m1924 194c-0.333-49.8 0.667-101-0.5-150-28.2 17-53.7 39-78.7 60-8.38 7.8-17.1 17.9-6.25 28 7.75 4.02 20.4 2.15 26.5 13 16 18.7 29.9 43.7 56.5 47 0.848 0.0515 1.85 4.04 2.49 2.01zm-1344 226c12.4 0.909 19.7-28 2.5-23-10.4 9.11-25.1-0.513-37.5 6.5-16.2 8.57 8.85 9.9 16 11.5 4.89 6.61 11.9 4.81 19 5zm1344 549c-0.333-194 0.667-388-0.5-582-12.6-4.6-23.6-1.22-35 3-12.5-3.94-25.4-2.19-38-2.84-15.7-6.06-20.9 17.3-33 22.4-16 12.1-22.8 36.8-46 37-16.2 2.22-31.5 5.41-41 19-9.66 2.92 2.62 20.7-14 19-19.5-4.18-27.7 17.4-44 20-5.02-9.74-11.8-0.379-22-1-5.97-12.6-30.7-18.4-26.5-31 4.49-18.5-8.44-38.2-6.25-56 5.71-16.5-14.8-33.5-31.2-33.8-11-6.68-26 0.438-24 11.8 5.55 10 23.8 33.6 2 35.7-11.1 12-27 5.77-39 13.3-27 3.6-49.3-14-75-17-15.8-10.9-35.9-2.2-52-13.7-18.9-5.33-32.9 17.1-53 9.52-10.6 10.9-27.9 6.17-42 4.15-13.1-3.87-24.1 9.29-38 3-15.4-5.32-20.3 9.08-30 16.5-14.4 3.6-12-11.6-14.2-19.5-4.43-11.5-15.1-11.2-24.8-11-13.6-11.3-17.7-42.2-42-33-14.2-6.88-33.5-1-35 17-17.5 24.1 12.2 52.2 36 50.8 12.7 10.2 29.9 33.2 46 16.2 10.8-2.66 29.2 6.34 30-10 4.05 5.35 3.49 15.9 12.8 23 9.49 7.83 11.8 17.4 7.17 29-3.8 17.1 7.9 38.2-5.67 53 2.07 13.9-12.5 20.5-21.3 21-5.58 14.9-17.6 26.2-35 26.8-14.1 2.13-28.4-4.77-41 4.95-11.8-0.748-24.1 6.09-34-3.25-5.3 14.1-23.9 5.47-36 7.5-15.2-9.22-35.6-0.206-50-12.7-12.9 2.52-23.6-8.03-36-2.92-14.1-7.18-29.7-17.8-46-11.9-12.7-5.92-23.7-14.2-38-15-19.9-5.69-29.5-25.5-45.3-37.3-15.1-14.7-33.7-24.1-45.4-42-18.8-4.12-18.1-26.9-35.3-34.8-12.9-5.81-18.4-19.5-33-21.2-9.04-12.6-21.9-36.1-41-27.2-3.73-12.2-16.5-14.4-28-10.8-12.6 3.1-25.2 3.92-33-7.2-11 1.58-20.8 2.01-32 1.2-17.8 1.74-28.5 28.1-5 30 14.6-12.6 36-14.3 48.5 3 17.9 12.3 41.6 21.4 52.8 40 8.66 7.52 15.3 16.2 15.3 29 5.88 8.26-0.543 29.3 14.3 24.7 17.7 5.2 2.92 23.3 13 34.3 8.36 14.7 32.4 21 39 36-1.34 15.6-3.08 36.2 18 39.5 9.51 14.1 39-0.0646 38 23.5 3.01 5.38 20.8 5.26 9 16-1.61 15.9 24.6 22.6 18.6 40 3.28 10.5 0.536 21.4 14.4 26.4 11.8 9.72 28 7.87 41 15.9 21.2 3.26 40.5-9.41 62-6.33 16.6-0.847 23.3-21.3 40.5-18 17.3-19.9 47.8-15.9 67.5-32 11.4-6.17 23.3-13 36-6.49 6.38 8.35-0.02 19.9 12.3 24.5 1.73 8.88-5.49 18.8 6.67 25 6.54 15.2-15.5 25.3-10 42-8.42 16.5-13.7 33.3-26.8 47-7.87 18.2-31.5 24.9-34.8 46-8.5 8.22 10.4 20.4-4 29-17.8 11.8-29.5 29.7-43.5 45-2.15 8.38-19.4 21.9-1.99 18.5 30.4-0.997 63.1 2 92-1.5 6.24-11 19-20.2 28-6 8.96 14.2 29.9 4.84 45 7.5 32.7-1.75 67.8 4.21 98-4.5 14.8 9.57 37 2.17 55 4.5 190-0.337 380 0.674 569-0.506zm-768-577c-14-0.778 9.31-17.3 0 0z"/>
  <path d="m1924 176c-0.333-34.9 0.666-70.2-0.5-105-20.5 10.3-45.2 20.8-57.8 40.8 5.3 20.9 20.8 40.1 43.8 42.3 9.21 3.65 7.81 16.1 14.5 21.7zm-746 266c19.4-6.89-14.7-34-10.7-13 0.382 4.99 5.76 12.5 10.7 13zm409 24c8.19-10.9-7.32-10.6-7 0h7zm338 504c-0.333-189 0.667-378-0.5-566-10.4-4.27-22.6-4.04-32-0.0553-7.33 21-30.2-20.1-40 0.5-9.77 14.6-23.6 25.6-33 42-5.62 22-21.9 38.3-36 54-8.57 24.8-40.3 29.7-62 35.7-19-0.65-38-5.86-57-7.5-23.3 0.411-43.7-11.5-60-26.4-13 2.73-18.2-16.5-31-17.8 0.172-15.7-11.8-2.86-9 5-15.3 0.867-32-4.12-44 6.5-15-4.18-29.5-9.23-44-15.7-11.9-3.98-22.2-13.3-36-12.8-8.57-13.2-23.8-24.2-37-34.4-14.8-4.23-26.5 9.64-42 3.83-13.8-4.66-27.1 4.87-42 3.12-8.07 4.76-17.9 2.06-23 11.6-9.99 7.81-28.8-13.2-31 5.83-11.9 11.2-2.04 31.8 7 42 12.8 13 0.096 32.8 4.67 49-5.84 13.3 7.82 34.4-10.7 40.7-11.7 12.1-24.5 24.9-37 35-13.7-14.8-28.3 16.8-44 3.14-17.7-2.27-35.4 9.1-54 3.89-11.1-3.89-20.6-1.78-31 0.635-13.9 0.586-28.4-0.688-41.3-2.38-10.6-7.24-23 6.03-32.8-5-6.41-14.4-26.3-23.7-36.8-7.74-16.3 4.79-18.8-22.5-33-17.3-0.762 15.8-18.4-6.47-27 5.8-11.9 1.04-23.7 3.64-31-9.47-10.3-6.24-19.2-12.2-24-23.3-13.6-9.64-17.5-27.9-36-31-14.8-5.56-21.8-22.4-38-27-5.48-17.1-23.5-25.5-34-40-6.53-13.4-38.2-3.07-21.5 10 5.96 16.4 24.6 23.9 28.5 41 13.2 8.9-2.45 27.2 16 31.2 12.6 5.86 16 21 28 28.2 3.58 11.8 17.6 13.5 22 24.8 19.5 4.29 44.3 18.8 33.3 41.7 3.68 9.38 19.9 6.25 17.7 21 6.13 13.6 16.7 26.6 21 41 2.93 8.51 18.2 12.8 28 16 11.3 1.98 23.7 6.21 36-1 14.9-2.74 31.1 6.76 40-10.4 17-5.5 31.8-16.8 48.7-21.6 11.1-15.7 31.3-15.4 47.3-15.3 8.63-8.64 21.6-11.5 29-20.1 11.7-0.783 8.99 11.6 19.7 13.4 13.2 19.1 14.9 44.4 19.3 67-1.06 15.3-1.33 30.1-12.5 42 1.09 24.3-22.7 38.3-25.7 61-4.06 12.9-26.3 9.64-32.1 24-14.1 13.8 13.7 33.9-6 46-13.8 13.9-18.4 33.4-35.8 44.5-7.68 9.66-9.58 14.1 4 12 19.9-2.97 48 9.3 58.1-14.5 7.75-26.9 33-44.3 49.9-63.5 15.1-0.993 24.8-19.7 42-13.5 13.5-0.867 23 19.1 11 28 8.1 9.23-3.15 12.8-9 16-1.58 15.2 23.8 24.4 26 8-4.68-5.68-23-2.81-8-11 9.89 2.84 17.1-5.09 26.1-9.05 10.8-12.5 24.7-25 38.9-36.4 13.1-1.88 35.5-6.03 34 14.5-22.5 17.6-12.3 50.7 8 66 4.27 8.58 2.77 19.4 16 15.5 96.8-0.333 195 0.667 291-0.5 0.058-10.9-6.18-24.5 10-28 11-9.96 34.2-1.43 25 15-0.726 21.9 26.5 10.9 41 13.5 33.7-0.999 69.8 2 102-1.5 3.83-17.4 15.9 9.89 17.3-9 5.63-15.1 20-8.24 20.7 3 13.3 4.81 29.3-13.8 37 7.5 5.41-0.308 11.4 0.615 16.5-0.46z"/>
  <path d="m1924 132c-0.972-12.4 1.96-31.6-1.5-39.7-13.6 2.81-35.9 9.57-25 27.7 7.37 10.3 16.1 11 26.5 12zm-1088 440c13.7-6.92-15.9-15.6-6-2 1.56 1.75 3.93 1.77 6 2zm23 16c14.1-10.3-16.9-10.5-3 0h3zm557 328c6.44-5.82-4.99-3.12 0 0zm-303 31c6.95-10.5-4.18-2.56 0 0zm700 23c-1.93-10.2-8.07-18.7-0.996-29-7.72-9.33 19.4-11.6 3.5-18-15.7-6.63 7-14.6 0-26 13.8-12.1 20.4 7.45 26 17 12.2-1.96 26.2-23.6 39-6.5 6.69 9.18 18.1 9.19 26 3.5 6.57 2.29 15 23.4 18.5 15-0.333-170 0.667-340-0.5-510-10.3 7.54-23.3-3.03-32 5.17-10.8 4.93-17.3-13.9-26-0.673-15.9 13-13.5 37.1-32.7 48-16.7 13-4.05 39-25.4 48-12.4 13.6-31.9 12.6-44.9 24.9-14.8 13.6-35.2 6.66-53 9-14.3 4.68-27.6-12.4-43-9.67-22.7-10.2-49.4-8.53-69.3-25.3-10.8-10.6-28-4.58-41.3-8-11.6 3.08-23 2.68-34.3 4.67-11.8-4.08-24.4-5.05-36.7-5.67-15.3-7.5-25.1-22-39.3-31-18.8-1.4-38.1-7.67-48-24.6-17.5-0.63-34.9-6.81-52-0.651-20.6-11-41.8 7.77-39.7 29.3-5.58 8.47 7.97 22.4-6.25 24-1.7 16.9-2.16 32.6-7.6 49-4.04 20.1-5.93 40.1-18.4 57.3-9.5 9.96-20.8 16.4-32 22.8-13.6 4.03-28.7 1.36-42 8.49-19.2 1.2-39.7-4.72-58 1.38-12.7-8.37-27.9 1.03-39 1-3.15-10.8-16.6-6.49-17 2-11.9-5.42-25.5-3.64-36 1.33-13.9-8.5-30.7-0.898-41-15.7-11.9-10.4-26.7-14.9-42-8.67-12 8.9-26.9 3.26-32-8.75-10.2 4.31-38.6 12.3-28 26.4 13.1 4.86 9.97 16.6 7.5 26.3 2.27 13.2 10.9 15.2 20.6 19.1 14.4 14.6 36 29.8 56.9 16.9 19.3-0.653 31.2-17.2 50-20 10.5-9.11 15.8-23.9 32-13.8 14.3-0.141 19-24.3 33-15.2 5.68-4.5 10.2 7.39 20 3 12.3-3.31 26.2-4.24 37 3.33 25.8 2.33 30.2 34 35.7 53.7-0.278 20-13.6 38-13.9 57-3.16 13.4 2.42 27.8-6.75 40 1.18 9.7-3.52 15.6-12 17-8.9 10.5-12.1 31.8-30.3 32-12.9 8.84-22.2 26.3-6.66 38 3.18 18 15.6 9.95 22-1 14.3-11.6 20.7-36.4 43-38 14.9-5.51 29.2-6.22 43-15.8 12.4-2.5 20.6-11.6 21.2-24.2 17.1-18.1 44.8-23.4 67.8-15.5 12.4-7.88 28.3-0.132 37-12.5 18.1 3.15 8.38 35.7 31 26 12.8 1.75 24 8.28 25 22 5.42-0.221 9.25-5.87 17 1 14.4 7.55-0.465 33.6-10 13-9.95 12.4 10.9 17.3 10 29 16.1 9.1-7.48 12-5 12 14.7 17.1-3.03 41.8-9.67 61-1.29 9.38-13.7 18.5 2.66 15.5 66.2-0.333 134 0.667 199-0.5 6.57-15.8-3.46-35.7 7.17-51 5.37-14.8 20.3-40.9 38.8-31.5 12.6 7.76 27 8.6 41 9 4.8 14.7 21.9 16.8 27.7 27.5-5.81 14.7 17 22.4 6.73 37 7.49 17.6 31.2 6.33 46.6 9.5 6.72-0.33 14.1 0.66 20.4-0.496z"/>
  <path d="m984 680c10.8-8.87 38-0.787 34-22-13-2.37-24.7-11.2-37-15.5-8.74 11.7-36.2 1.9-25.2 24.5 3.29 13.7 17.4 10.8 28.2 13zm608 290c8.44-1.51 17.1-2.41 8.6-12 3.14-18.3-0.68-37.7 10.7-54-2.87-14.4 3.79-27 15.7-33 3.75-11.4 12.6-15.1 24-16 11.7-6.34 24.4-21.5 36-8 11.5-0.446 30.6 2.03 30 18 11.1-2.4 2.71 13.6 13.5 15 17.7 18.2 21.1 43.8 28 66 3.21 13.5 15.7 11.7 21.5-1e-3 3.58-21.1-1.19-44.6 11.2-64 2.86-9.42 14.2-7.44 12.5-20 11.6-6.08 17.5-21.9 26.3-27 14.4 13.5 24-19.9 34-11 5.24 14.9 17.5-2.61 22 15 13.1 5.76 22.7 20.2 24 37 7.49 2.61 8.33 18.1 13.5 17-0.333-154 0.667-309-0.5-463-17 1.85-31 15-48.5 14.7-9.66 14.6-19.4 29-27.7 44-0.253 17.6-12.5 27.6-19.8 42-6.04 16.1-23.2 20.9-39 18.4-18.7 7.74-38.2 16.4-58.7 14.6-13.7-2.61-31.8 6.4-43.3-7.2-16.8 1.01-30.7-16.5-48-6.66-14.1-3.41-28.9-4.94-42-11.1-3.4-17.1-22.9-5.21-34-11.2-10.7-1.18-20.1-4.71-31-0.749-19-0.541-36.2-12.9-54-9.2-9.29-5.59-14.3-15.5-22-19.8-11.7-1.15-21.3-10.1-33-10.3-7.27-11.3-24.3-2.77-31-16.7-10.5-7.11-27.4-21.5-35.4-4-5.82 11.1-19 5.65-26.6 9-8.12 9.13 0.437 21.5-9.5 29 1.19 22.2-12.6 44.7-4.17 66-6.88 15.9-19.4 29.4-25.8 45 1.81 11.8-15.4 14.6-20.5 23.6-12-2.67-22.3 2.6-33 6.26-22.4-11.8-32.4 25.2-22 39.1 14.7 13.9 9.64 34.6-2 48.5-9.54 20.2-8.92 42.6-14.5 63.5 17.5 15.3-30.8 23.1-8.5 36.5 5.56 13 14.6-6.97 25-3.5 8.89-9.62 25.1-0.166 29.3-16 5.97-7.63 14-12.6 19.7-21 12.3-5.88 18.7-20 35-16 9.39-13.4 23.7-6.25 36.7-11 15.2-9.82 25.7-23.6 28.3-41 11.6-9.79 22.8-22.7 27-39 12.7-1.7 20.1-11.8 22-25 2.91-9.33 21.6-4.74 12 3 8.2 10.8 15.2 33.4 32 23 11.3-0.647 15.9 17.1 28 19 6.59 12.7-5.76 22.5-1 36 6.03 17.9 13.8 33.4 24.7 50 2.17 23.8-18.2 43.1-19.7 67-5.25 12.6 4.06 26-7.75 37-6.65 20-7.87 43.3-28.1 56-4.59 6.67-22.8 22.1-5.2 18.5 48.2-0.33 97.7 0.662 145-0.498zm-233-245c-4.95-3.29 4.04-6.99 0 0zm453 108c-5.8-9.17 6.33-8.09 0 0z"/>
  <path d="m1548 970c16-7.59 25.9-25 38.1-38 9.07-11.1 7.16-24.7 13.4-38 9.05-10.9 6.25-28.1 9.49-41 0.73-13.1 14.4-24.1 26.3-27 19.1-0.397 31.8-17.6 35.3-35 11.7-7.04 12.8-27.4 28.7-21.7 17.5-2.4 43.1-4.23 50 15.7 20.3 15.9-1.62 34.5 1.75 54-5.45 12.6-8.37 37.1 11.2 36 15.8 1.89 20.5-20.9 33-28 14.2-11.1 10.8-31.3 11-47-13.8-16 16.9-18.5 15-34.5 13.7-11 29.3 1.2 44 1.5 7.14 13.6 26.2 9.12 33 24 10.7 7.39 13.8 22.8 18 34-2.57 11.3 11.5 25.7 7.5 7-0.333-128 0.667-256-0.5-384-13 16.8-42 9.18-48.4 33.1-15.9 12.2-13 35.8-25 51.4-1.94 22.9-27.4 45.1-49.6 35.3-11.4-2.75-17.3 8.72-29 9.67-10.6 6.72-27.2 2.64-39-3e-3 -4.78-7.76-15.3-1.75-23-5.88-14.5 4.21-28.2-5.45-43-2.44-10.1-9.36-19.4-17.5-34-10.8-18.3 3.45-33.9-6.04-51.2-9.86-16.9-3.95-32.2-13.3-50.3-14-9.33-2.06-16.1 10.3-23.5-1.88-17.1-2.29-33.8-6.51-47-17.7-13.8-4.47-28.7 1.31-42-3.37-4.59-13.9-22.5-1.25-29.5-15-11.5-14.4-32.7-20.9-42.5-1-9.93 9.66 1.87 28.7-15 35-5.45 15.2 9.92 27.3 6 43 8 16.3-14.2 17.2-17.5 30-8.13 10.5-8.4 28-21 37-10.2 22.1-40.6 9.55-54.5 22-10.1-1.92-5.22 17.8-3.07 24.9-2.04 15.2 6.23 33.4-8.13 46.1-18.9 14.6-5.63 37.2-6.8 56 11.7 3.52 22.7 3.62 22.8-12 8.61-4 14.8-17.7 25.2-17.7 10.5 10 18.4-12.1 31-9.34 10.5-0.439 19.7-1.86 29-6 8.29-16.8 20.9-30.5 28-48 17.4-1.09 9.56-22.1 22-30 7.85-11.3 6.06-25.5 18-33.5-0.078-12.4 9.46-19.4 21-19.5 8.51-15.7 24.7-21.9 38.3-31 7.18-12.8 25.1-7.9 36.7-14 16.1-5.81 30.2 8.23 23 24 6.36 13.1 19.3 20.5 25 34 6.75 6.43 21.8 29.8 18 22-7.66 9.5-5.1 25.6-19 28-2.18 13.8 13.6 4.7 14.2 18 5.79 13.6 0.844 29.1 0.75 43-5.9 12.2-19.8 21.5-15.7 37-7.04 11.9-13.3 25.3-25.5 32-8.21 21.2-1.56 44.5-14.4 64 0.471 12.4-5.08 24.2-6.17 36 11.3 30.1-32.1 36.6-38.3 61.2-7.59 4.92 19.2 1.16 26 2.33 20.5-0.335 41.5 0.671 61.7-0.504z" stroke-width="3"/>
  <path d="m1280 742c14.9-4.47 30-6.22 43-14 15.3-2.95 14-24.2 28.5-29 1.67-9.73 9.6-16.6 6.5-27.1 11.5-2.76 21.8-17.2 20.3-29.9-4.01-12.7 12-20.8 9.67-34.5 10.1-7.18 1.05-21.9 12-25.5 12.8-7.05 34.9-4.77 49-16 11.9-4.79 29.8-16.8 27-29.7-11.2-5.34-25.7-0.157-36-6.33-10.6-13.5-35.9 3.67-44-16.7-8.95-5.52-19.6-4.48-28-3.75-14.7 9.74-5.77 27.4-13.3 40.5-1.51 18 16.3 33.8-0.163 50-2.85 13.1-19.8 9.96-19.8 24-9.01 7.97-8.86 21.5-20.7 27.6-7.08 10-18.5 0.6-25 12-17.3 5.09-22.7 22.5-26 38.5-12.5 11.8-5 46.6 17 40zm483 31c1.69-6.63-6.36-1.06 0 0zm-252 197c9.64-17.3 30.4-16.9 43.5-28 7.18-19 11.3-37.9 25.7-53 1.54-13 19-20.1 11.3-33 2.2-13.3 14.1 6.39 14.1-8-2.56-13.1-6.55-28.3 5.2-38 0.372-13.6 15.6-28.1 28.7-19.5 20.3-4.6 33.4-21.9 41.4-40.5 10.5-17.3 28.5-28.4 48.6-21.2 20.1 7.65 34.7 25.5 40.5 46.3 12.4 16.8 22.6-12.4 36.8-11 8.93-17.6 28-31.2 47.7-34 16 13.3 40.9 16.2 49 38.3 4.98 12.4 16.5 29.3 21.5 35.7-0.333-111 0.667-222-0.5-332-27.8 13.5-47.5 40.6-58.2 69.5 2.18 20.7-14.6 32.5-29.2 43-2.37 10.1-27.5 17.7-20.5 13.2-14.3-2.08-30.5-9.17-41 4.8-14.8 8.94-32.3-4.48-47-5.25-4.64-10.2-27-15.3-21-11.8-9.37-0.351-20.2 7.35-26-5.67-10-12.2-23 6.76-33-4.08-14.7-1.45-28 0.338-41-7.25-9.53 0.623-17.2 4.25-27 4-8.64 11 8.44 29.6-8.75 39-11.3 18.8 6.92 36.3 11.7 54.6 2.79 14.2 1.05 30.6-2.33 45.4 0.235 11.3 2.08 23.7-0.667 34-19.5 14.7-15.2 42-33.2 58 2.54 20.2-15.8 36-14.2 57-3.26 22.8-17.4 43.1-16.3 67-11.3 8.72-16.4 24.1-25.3 33-10.1-5.17-22.3 15.7-6 10.5 8.43-0.327 17.4 0.653 25.5-0.491z"/>
  <path d="m1350 646c10.2-9.56-9.98-5.3 0 0zm0.5 38c9.79-6.53-7.01-24.2-5.23-7 0.335 2.65 1.42 8.19 5.23 7zm-58.5 37c9.74 1.27 26.6-4.93 21.7-18 0.031-16.6 26.4-11.7 21.3-30 7.27-5.8 12.7-22.6-3-19.2-14-12.8-21.9 14.2-35 7.38-9.59 14.3-13.8 31.2-14 48.9 3.62 2.92 2.34 13 9 11zm304 115c2.71-6.74 0.941-24.5-2.5-9-0.204 1.94-0.906 10.7 2.5 9zm-45.5 48c0.777-12.7 23.7-4.28 18.8-20 3.07-15.4 18.4-31.8 3.17-45 5.1-8.72 10.7 0.378 19.4-10 7.63-20.2 16.9-41.8 30.6-58 13.5-1.4 29 0.329 37-12 18.5-3.51 23.8-28.2 41-32.8 16.4 2.47 32.6 2.12 49-0.751 9.63 13.7 32.7 16.1 43 30.5 9.36-9.66 24.9 4.19 29-14 14.4-14.8 39-15.3 58-9.67 4.76 19.5 28.9 21.7 34 39.7 8.87 1.92 4.54 23.9 10.5 20-0.333-92.4 0.667-185-0.5-277-17.3 11.5-36.1 28-38.4 50.3-11.8 9.44-9.4 27.6-21.6 38-9.75 7.07-17.8 17.2-27 24-20.3 6.06-42.2 11.3-62.3 15-9.85 10.2-18.1 1.71-28.7-1-9.73-3.54-20.1-5.81-29-9-6.79-10.1-16.9-17.6-30-14.1-15.8-12-32.1 20.3-45 0.64-14.1 5.07-33.3-6.33-40 12-9.34 7.63-17.2 16.9-16 28.5 7.5 12.3 5.57 27.6 14.2 39-0.502 20-3.14 41.3 6.83 59-7.45 10.5-22.4 21-18.3 35-12.1 14.8-6.58 36.6-21.7 48-3.9 9.05-14.1 13.8-5 24 1.54 15.5-13.9 25.6-12 40h1zm-2.5 27c18.5-13.9-16.9-19.3-2.5 0.497 0.818-0.0345 1.85 0.158 2.5-0.497z"/>
  <path d="m1316 686c11.6-6.6-17.2-18.5-5.4-3 0.326 3.06 2.36 4.97 5.4 3zm482 32c15.6-13.1 32.3-31.3 55-29.3 12.3 2.21 26.7 4.35 40 0.583 13.4 1.52 27.8 11.4 31.5 20.7-0.333-63.3 0.667-127-0.5-190-24 9.12-28.9 38.7-31.1 61.2 0.108 10.1-12 16.1-13.9 24.7-11 4.13-20.5 6.39-28 16.3-15.6 1.09-30.5 10.1-46 12-16.2 4.85-34.1 1.58-51 2.6-15.5-8.56-35.2-10.4-49-21.2-19-1.74-38.8 0.522-57 5.62-8.28 7.27-16.9 6.78-26.3 6-14.6 7.79-12.8 29.3-8.33 44 0.521 16.6 8.02 36.2 24.7 40.3 18.9-1.76 29.8-24 49-22 11-12.8 26.9-1.79 41-5 19.3 11.7 47.9 12.4 62 31.7 2.7 0.491 5.21 2.38 8.01 2.03z"/>
  <path d="m1676 634c7.9-8.46-8.18-2.81 0 0zm-14 40c11-6.05 22.1-12.2 34-11 6.72-8.4 21.8-19.4 7-29-12.2-11.9-25.7 6.51-38 5-8.21-4.3-26.9 1.45-29.9 11.9-1.43 12.9 14.5 12.8 18.9 22.6 2.65 0.473 5.29 0.599 8 0.498zm120 15c12.3 0.807 23.9-0.593 31-11 9.62-4.84 17.6-9.3 28-5 14.7-13.3 36.6 8.86 51-7.25 11.5-9.34 24.6 7.15 31.5 7.25-0.555-44.5 1.11-95.8-0.833-136-12 8.12-1.64 25.8-11.9 37 6.81 23.1-15.6 42.2-35.7 47.6-7.66 9.02-20.7 8.66-28 16.8-13.1-0.569-25.8 6.12-39 7.6-10.9-4.14-13.7 9.45-25 2-12-1.87-25.1-2.53-35 4-3.54-14.7-15 6.63-4 8 7.34 13.7 21.6 27.8 38 29z"/>
  <path d="m1924 652c-0.774-13.8 1.55-34.8-1.17-44-14 6.26-31.6 23.1-21.3 39.3 8.31-1.22 14.5 3.5 22.5 4.67z" stroke-width="3"/>
 </g>
</svg>
