<?xml version="1.0" encoding="UTF-8"?>
<!-- Created with Inkscape (http://www.inkscape.org/) -->
<svg width="106mm" height="28mm" version="1.1" viewBox="0 0 106 28" xmlns="http://www.w3.org/2000/svg">
 <g transform="translate(-14.1 -16.7)" fill="#ce4e5c">
  <text transform="scale(.265)" font-family="'Avenir Next LT Pro'" font-size="40px" style="line-height:1.25;shape-inside:url(#rect2252);white-space:pre" xml:space="preserve"/>
  <text x="198.98056" y="54.66608" font-family="'Avenir Next LT Pro'" font-size="10.6px" stroke-width=".265" style="line-height:0.75" xml:space="preserve"><tspan x="198.98056" y="54.66608" fill="#ce4e5c" stroke-width=".265"> </tspan></text>
  <g transform="matrix(1 0 0 .998 29.6 -28.5)">
   <g transform="matrix(.919 0 0 .919 -23.4 -3.61)" stroke="#192e5b" stroke-linejoin="round">
    <path transform="matrix(.267 0 0 .267 -14.5 -4.26)" d="m94.5 322 57.3-99.3 57.3 99.3h-57.3z" fill="#ce4e5c" opacity=".99" stroke-width="15"/>
    <path transform="matrix(.223 0 0 .223 -28.3 19.8)" d="m232 277 39.8-68.9 39.8 68.9h-39.8z" fill="#ffb6c1" opacity=".99" stroke-width="17.9"/>
   </g>
  </g>
  <g transform="matrix(1.26 0 0 1.26 31.7 -.126)" stroke-width=".265" aria-label="demapi">
   <path d="m17.3 30.2q-1.51 0-2.34-1.26-0.81-1.26-0.81-3.44 0-2.2 1.03-3.46 1.04-1.26 2.57-1.26 0.81 0 1.71 0.414v-4.39l0.126-0.126h1.04q0.792 0 1.12 0.36t0.324 1.26v9.04q0 0.972 0.504 1.35-0.072 0.36-0.324 0.774-0.234 0.396-0.504 0.612-1.26-0.054-1.87-1.01-1.04 1.13-2.57 1.13zm0.774-2.16q0.792 0 1.39-0.774v-4.01q-0.774-0.468-1.26-0.468-1.3 0-1.3 2.79 0 1.24 0.324 1.85t0.846 0.612z"/>
   <path d="m31.3 26.3h-4.77q0.054 0.864 0.432 1.35 0.378 0.468 1.33 0.468t2.27-0.558q0.558 0.54 0.738 1.6-1.46 1.03-3.53 1.03-1.12 0-1.93-0.378-0.81-0.396-1.24-1.08-0.792-1.31-0.792-3.37t0.99-3.37 2.86-1.31 2.86 1.08q1.01 1.06 1.01 2.74 0 0.936-0.234 1.8zm-2.25-2.07q0-0.72-0.306-1.17-0.306-0.468-0.954-0.468-0.63 0-0.936 0.45-0.288 0.45-0.342 1.4h2.54z"/>
   <path d="m38.1 24.5q0-1.3-0.846-1.3-0.612 0.018-1.3 0.684v6.05q-0.558 0.108-1.33 0.108-0.756 0-1.35-0.108v-8.96l0.126-0.126h1.01q1.12 0 1.44 1.13 1.3-1.17 2.48-1.17 1.46 0 2.11 1.26 1.39-1.26 2.66-1.26t1.89 0.792 0.612 2.07v4.05q0 1.12 0.432 1.78-0.702 0.576-1.58 0.576-0.864 0-1.21-0.414-0.324-0.414-0.324-1.26v-3.92q0-1.28-0.882-1.28-0.558 0-1.26 0.702v6.03q-0.576 0.108-1.33 0.108t-1.35-0.108z"/>
   <path d="m55.4 28.7q-0.072 0.36-0.342 0.774-0.252 0.414-0.504 0.612-1.24-0.054-1.87-0.954-1.15 1.08-2.56 1.08-1.39 0-2.11-0.828-0.702-0.828-0.702-1.89 0-1.53 1.01-2.32 1.03-0.792 2.54-0.792 0.594 0 1.35 0.054v-0.396q0-1.19-1.22-1.19-0.774 0-2.68 0.576-0.54-0.63-0.648-1.87 0.846-0.36 2-0.576 1.17-0.216 2.07-0.216 1.35 0 2.25 0.756 0.918 0.738 0.918 2.3v3.67q0 0.846 0.504 1.21zm-4.59-0.486q0.702 0 1.4-0.594v-1.49q-0.396-0.018-1.08-0.018-1.21 0-1.21 1.21 0 0.378 0.234 0.648 0.252 0.252 0.648 0.252z"/>
   <path d="m61.8 20.7q1.48 0 2.29 1.26 0.828 1.26 0.828 3.46 0 2.18-1.03 3.44t-2.56 1.26q-0.81 0-1.71-0.414v2.5q0 0.882-0.342 1.24-0.342 0.378-1.13 0.378h-1.04l-0.126-0.126v-12.7l0.126-0.126h0.72q1.01 0 1.49 0.882 1.03-1.03 2.48-1.03zm-0.792 2.16q-0.792 0-1.39 0.756v4.03q0.72 0.45 1.24 0.45 1.31 0 1.31-2.77 0-1.24-0.324-1.85t-0.846-0.612z"/>
   <path d="m69.8 22.9v6.97q-0.54 0.108-1.31 0.108t-1.37-0.108v-6.05q0-1.03-0.846-1.03h-0.252q-0.108-0.45-0.108-0.936t0.108-0.936q0.9-0.09 1.53-0.09h0.36q0.882 0 1.39 0.558t0.504 1.51zm-3.02-3.56q-0.198-0.486-0.198-1.01t0.198-1.01q0.504-0.27 1.31-0.27 0.828 0 1.28 0.27 0.198 0.486 0.198 1.01t-0.198 1.01q-0.45 0.27-1.31 0.27t-1.28-0.27z"/>
  </g>
 </g>
</svg>
